<?xml version="1.0" encoding="UTF-8"?>
<!DOCTYPE svg PUBLIC "-//W3C//DTD SVG 1.1//EN" "http://www.w3.org/Graphics/SVG/1.1/DTD/svg11.dtd">
<!-- Creator: CorelDRAW 2021.5 -->
<svg xmlns="http://www.w3.org/2000/svg" xml:space="preserve" width="101.404mm" height="101.548mm" version="1.1" style="shape-rendering:geometricPrecision; text-rendering:geometricPrecision; image-rendering:optimizeQuality; fill-rule:evenodd; clip-rule:evenodd"
viewBox="0 0 10414.16 10428.94"
 xmlns:xlink="http://www.w3.org/1999/xlink"
 xmlns:xodm="http://www.corel.com/coreldraw/odm/2003">
 <defs>
  <style type="text/css">
   <![CDATA[
    .fil0 {fill:#7688A1}
   ]]>
  </style>
 </defs>
 <g id="Слой_x0020_1">
  <metadata id="CorelCorpID_0Corel-Layer"/>
  <path fill="#c70101" d="M4539.36 6709.24c0,-754.93 50.26,-1703.02 -10.98,-2434.7 -378.18,131.09 -795.69,975.4 -1288.87,1102.89 -699.98,180.96 -1098.49,-660.12 -541.22,-1229.39l1775.87 -1777.02c146.47,-146.63 398.75,-441.1 745.84,-424.81 479.8,22.52 972.21,699.52 1323.5,1043.42 397.12,388.74 766.49,776.7 1180.34,1175.98 554.19,534.7 131.67,1414.69 -586.2,1203.22 -480.1,-141.42 -868.14,-968.94 -1261.33,-1096.02 -36.76,734.3 34.02,3310.06 -23.7,3698.93 -43.74,294.64 -310.7,534.11 -669.13,524.96 -835.73,-21.35 -644.12,-1044.44 -644.12,-1787.46zm419.95 -6693.48c-1119.5,126.81 -2022.65,362.21 -2864.39,1024.8 -762.94,600.54 -1354.35,1285.1 -1713.62,2205.13 -1386.86,3551.55 1168.36,7321.49 5092.47,7179.34 2777.42,-100.6 5102.69,-2569.96 4931.49,-5495 -124.41,-2125.57 -1481.18,-3834.25 -3253.65,-4544.53 -572.78,-229.52 -1514,-446.58 -2192.3,-369.74z"/>
 </g>
</svg>
